<?xml version="1.0" encoding="utf-8"?>
<!-- Generator: Adobe Illustrator 16.0.3, SVG Export Plug-In . SVG Version: 6.00 Build 0)  -->
<!DOCTYPE svg PUBLIC "-//W3C//DTD SVG 1.1//EN" "http://www.w3.org/Graphics/SVG/1.1/DTD/svg11.dtd">
<svg version="1.1" id="Layer_1" xmlns="http://www.w3.org/2000/svg" xmlns:xlink="http://www.w3.org/1999/xlink" x="0px" y="0px"
	 width="640px" height="453.703px" viewBox="0 0 640 453.703" enable-background="new 0 0 640 453.703" xml:space="preserve">
<polygon fill="#273945" points="264.718,188.676 264.718,139.262 296.088,139.262 296.088,145.162 271.797,145.162 271.797,160.637 
	294.699,160.637 294.699,166.537 271.797,166.537 271.797,188.676 "/>
<path fill="#273945" d="M308.273,186.94c-2.591-1.479-4.592-3.584-6.003-6.315c-1.412-2.729-2.116-5.921-2.116-9.577
	c0-3.655,0.705-6.859,2.116-9.612c1.411-2.752,3.412-4.869,6.003-6.35c2.591-1.48,5.598-2.221,9.022-2.221
	c3.378,0,6.361,0.741,8.954,2.221c2.591,1.481,4.591,3.598,6.002,6.35c1.412,2.753,2.118,5.958,2.118,9.612
	c0,3.655-0.706,6.848-2.118,9.577c-1.411,2.731-3.411,4.836-6.002,6.315c-2.593,1.481-5.575,2.221-8.954,2.221
	C313.871,189.161,310.864,188.422,308.273,186.94 M324.652,180.417c1.711-2.128,2.567-5.251,2.567-9.369
	c0-4.026-0.867-7.125-2.603-9.3c-1.735-2.174-4.176-3.261-7.322-3.261c-3.192,0-5.667,1.087-7.426,3.261
	c-1.758,2.176-2.637,5.274-2.637,9.3c0,4.118,0.868,7.241,2.603,9.369c1.735,2.128,4.199,3.192,7.392,3.192
	C320.464,183.61,322.941,182.546,324.652,180.417"/>
<path fill="#273945" d="M361.621,153.351l-0.14,6.385c-1.249-0.462-2.614-0.694-4.094-0.694c-3.192,0-5.588,0.961-7.184,2.88
	c-1.596,1.92-2.395,4.337-2.395,7.252v19.501h-6.939v-25.122c0-3.656-0.186-6.941-0.556-9.856h6.524l0.624,6.316
	c0.926-2.313,2.359-4.083,4.303-5.31c1.942-1.225,4.118-1.839,6.524-1.839C359.354,152.865,360.464,153.028,361.621,153.351"/>
<path fill="#273945" d="M417.973,166.884v21.792h-7.01v-21.445c0-3.007-0.521-5.205-1.561-6.593
	c-1.041-1.387-2.719-2.082-5.031-2.082c-2.685,0-4.801,0.926-6.351,2.776c-1.551,1.851-2.324,4.373-2.324,7.565v19.779h-7.01
	v-21.445c0-3.007-0.521-5.205-1.563-6.593c-1.04-1.387-2.718-2.082-5.031-2.082c-2.683,0-4.812,0.926-6.385,2.776
	c-1.573,1.851-2.359,4.373-2.359,7.565v19.779h-6.939v-25.122c0-3.655-0.187-6.941-0.556-9.856h6.522l0.625,5.83
	c1.017-2.127,2.475-3.771,4.373-4.928c1.896-1.156,4.117-1.735,6.663-1.735c5.412,0,8.952,2.245,10.617,6.732
	c1.064-2.082,2.625-3.723,4.686-4.927c2.058-1.203,4.383-1.805,6.974-1.805C414.087,152.865,417.973,157.539,417.973,166.884"/>
<path fill="#273945" d="M458.461,153.698v34.978h-6.94v-5.968c-1.02,2.082-2.533,3.678-4.546,4.788s-4.361,1.665-7.044,1.665
	c-3.101,0-5.819-0.739-8.154-2.22c-2.338-1.48-4.154-3.574-5.449-6.28c-1.295-2.707-1.942-5.865-1.942-9.473
	c0-3.61,0.659-6.802,1.978-9.578c1.319-2.776,3.159-4.927,5.518-6.455c2.359-1.527,5.043-2.291,8.051-2.291
	c2.683,0,5.02,0.567,7.01,1.7c1.987,1.135,3.515,2.742,4.58,4.824v-5.691H458.461z M448.918,180.313
	c1.734-2.197,2.603-5.285,2.603-9.265c0-4.026-0.868-7.125-2.603-9.3c-1.734-2.174-4.199-3.262-7.392-3.262
	c-3.146,0-5.61,1.123-7.391,3.366c-1.783,2.245-2.673,5.356-2.673,9.335c0,3.932,0.89,6.986,2.673,9.16
	c1.78,2.176,4.269,3.262,7.46,3.262C444.741,183.61,447.184,182.511,448.918,180.313"/>
<path fill="#273945" d="M476.81,159.111v17.559c0,2.406,0.521,4.106,1.562,5.101c1.041,0.995,2.486,1.492,4.337,1.492
	c1.204,0,2.431-0.185,3.679-0.555v5.69c-1.526,0.508-3.262,0.763-5.205,0.763c-3.609,0-6.408-1.017-8.397-3.053
	c-1.99-2.036-2.983-4.997-2.983-8.883v-18.114h-6.802v-5.414h6.802v-8.744l7.009-2.429v11.173h9.646v5.414H476.81z"/>
<path fill="#273945" d="M490.781,138.43h8.119v7.356h-8.119V138.43z M491.405,153.698h6.94v34.978h-6.94V153.698z"/>
<path fill="#273945" d="M513.007,186.94c-2.592-1.479-4.593-3.584-6.003-6.315c-1.411-2.729-2.117-5.921-2.117-9.577
	c0-3.655,0.706-6.859,2.117-9.612c1.41-2.752,3.411-4.869,6.003-6.35c2.591-1.48,5.599-2.221,9.022-2.221
	c3.377,0,6.36,0.741,8.953,2.221c2.59,1.481,4.591,3.598,6.002,6.35c1.412,2.753,2.117,5.958,2.117,9.612
	c0,3.655-0.705,6.848-2.117,9.577c-1.411,2.731-3.412,4.836-6.002,6.315c-2.593,1.481-5.576,2.221-8.953,2.221
	C518.606,189.161,515.598,188.422,513.007,186.94 M529.386,180.417c1.711-2.128,2.567-5.251,2.567-9.369
	c0-4.026-0.868-7.125-2.602-9.3c-1.735-2.174-4.177-3.261-7.322-3.261c-3.192,0-5.668,1.087-7.426,3.261
	c-1.758,2.176-2.638,5.274-2.638,9.3c0,4.118,0.868,7.241,2.603,9.369c1.734,2.128,4.199,3.192,7.391,3.192
	C525.198,183.61,527.674,182.546,529.386,180.417"/>
<path fill="#273945" d="M576.766,166.884v21.792h-7.01v-21.375c0-3.054-0.591-5.275-1.77-6.663c-1.18-1.387-3.066-2.082-5.656-2.082
	c-2.962,0-5.333,0.926-7.113,2.776c-1.782,1.851-2.672,4.327-2.672,7.426v19.917h-6.94v-25.122c0-3.655-0.186-6.941-0.555-9.856
	h6.523l0.624,6.038c1.111-2.221,2.719-3.921,4.823-5.101c2.104-1.18,4.499-1.771,7.184-1.771
	C572.578,152.865,576.766,157.539,576.766,166.884"/>
<rect x="264.718" y="216.678" fill="#273945" width="7.149" height="49.413"/>
<path fill="#273945" d="M312.715,244.3v21.792h-7.009v-21.375c0-3.055-0.59-5.274-1.77-6.662c-1.18-1.389-3.065-2.082-5.656-2.082
	c-2.962,0-5.333,0.925-7.114,2.775c-1.781,1.851-2.671,4.327-2.671,7.426v19.918h-6.94v-25.123c0-3.654-0.186-6.94-0.556-9.854
	h6.523l0.625,6.037c1.11-2.22,2.716-3.921,4.823-5.101c2.105-1.181,4.5-1.77,7.183-1.77
	C308.527,230.281,312.715,234.955,312.715,244.3"/>
<path fill="#273945" d="M318.572,262.135l2.083-5.066c3.654,2.776,7.842,4.165,12.561,4.165c2.405,0,4.234-0.405,5.483-1.215
	s1.872-1.955,1.872-3.436c0-1.249-0.427-2.231-1.283-2.95c-0.856-0.717-2.301-1.329-4.336-1.839l-5.831-1.388
	c-3.053-0.647-5.378-1.792-6.975-3.435c-1.596-1.643-2.394-3.69-2.394-6.143c0-3.146,1.26-5.691,3.782-7.634
	c2.522-1.944,5.864-2.915,10.029-2.915c2.498,0,4.868,0.394,7.113,1.181c2.243,0.786,4.152,1.896,5.726,3.33l-2.151,4.928
	c-3.378-2.684-6.939-4.024-10.688-4.024c-2.269,0-4.025,0.428-5.275,1.283c-1.249,0.856-1.873,2.047-1.873,3.574
	c0,1.204,0.393,2.176,1.18,2.914c0.786,0.741,2.035,1.318,3.748,1.735l5.969,1.457c3.33,0.741,5.795,1.909,7.391,3.505
	c1.596,1.597,2.395,3.668,2.395,6.212c0,3.146-1.262,5.633-3.783,7.46c-2.522,1.829-5.957,2.741-10.306,2.741
	C326.9,266.577,322.087,265.096,318.572,262.135"/>
<path fill="#273945" d="M383.578,248.742h-24.984c0.23,8.188,3.956,12.283,11.174,12.283c4.025,0,7.703-1.318,11.035-3.956
	l2.151,4.997c-1.574,1.388-3.575,2.487-6.004,3.297c-2.429,0.809-4.87,1.214-7.321,1.214c-5.599,0-9.993-1.607-13.187-4.822
	c-3.191-3.216-4.789-7.623-4.789-13.222c0-3.562,0.706-6.73,2.117-9.508c1.411-2.776,3.389-4.927,5.934-6.454
	c2.545-1.526,5.437-2.292,8.675-2.292c4.72,0,8.434,1.529,11.139,4.582c2.707,3.054,4.061,7.287,4.061,12.7V248.742z
	 M362.064,237.845c-1.665,1.573-2.729,3.816-3.191,6.732h18.528c-0.277-2.961-1.179-5.216-2.705-6.767s-3.587-2.325-6.177-2.325
	C365.882,235.486,363.73,236.273,362.064,237.845"/>
<path fill="#273945" d="M410.907,230.766l-0.139,6.385c-1.249-0.462-2.614-0.693-4.095-0.693c-3.191,0-5.586,0.96-7.183,2.88
	c-1.597,1.921-2.395,4.337-2.395,7.253v19.501h-6.94v-25.123c0-3.654-0.185-6.94-0.555-9.854h6.523l0.625,6.315
	c0.925-2.313,2.359-4.083,4.303-5.31c1.943-1.226,4.117-1.838,6.523-1.838C408.641,230.282,409.751,230.443,410.907,230.766"/>
<path fill="#273945" d="M427.077,236.526v17.56c0,2.406,0.521,4.105,1.562,5.101s2.486,1.492,4.337,1.492
	c1.204,0,2.431-0.185,3.679-0.555v5.69c-1.526,0.508-3.262,0.763-5.205,0.763c-3.609,0-6.408-1.017-8.398-3.053
	c-1.989-2.036-2.983-4.998-2.983-8.884v-18.114h-6.801v-5.412h6.801v-8.745l7.01-2.43v11.174h9.646v5.412H427.077z"/>
<path fill="#273945" d="M441.047,215.846h8.12v7.356h-8.12V215.846z M441.672,231.114h6.94v34.978h-6.94V231.114z"/>
<path fill="#273945" d="M463.276,264.357c-2.593-1.48-4.593-3.586-6.004-6.316c-1.411-2.729-2.116-5.922-2.116-9.576
	s0.705-6.859,2.116-9.613c1.411-2.751,3.411-4.868,6.004-6.35c2.591-1.48,5.598-2.221,9.021-2.221c3.377,0,6.361,0.74,8.953,2.221
	c2.59,1.481,4.591,3.599,6.003,6.35c1.411,2.754,2.116,5.959,2.116,9.613s-0.705,6.847-2.116,9.576
	c-1.412,2.73-3.413,4.836-6.003,6.316c-2.592,1.48-5.576,2.22-8.953,2.22C468.873,266.577,465.866,265.838,463.276,264.357
	 M479.654,257.833c1.711-2.128,2.567-5.25,2.567-9.368c0-4.025-0.867-7.125-2.602-9.301c-1.735-2.174-4.177-3.262-7.322-3.262
	c-3.191,0-5.667,1.088-7.426,3.262c-1.758,2.176-2.637,5.275-2.637,9.301c0,4.118,0.867,7.24,2.602,9.368
	c1.735,2.128,4.199,3.192,7.393,3.192C475.465,261.025,477.942,259.961,479.654,257.833"/>
<path fill="#273945" d="M527.032,244.3v21.792h-7.009v-21.375c0-3.055-0.591-5.274-1.77-6.662c-1.18-1.389-3.066-2.082-5.656-2.082
	c-2.962,0-5.333,0.925-7.114,2.775s-2.671,4.327-2.671,7.426v19.918h-6.94v-25.123c0-3.654-0.186-6.94-0.555-9.854h6.522
	l0.625,6.037c1.11-2.22,2.718-3.921,4.823-5.101c2.104-1.181,4.499-1.77,7.184-1.77C522.845,230.281,527.032,234.955,527.032,244.3"
	/>
<path fill="#273945" d="M258.68,349.823c1.805,0.322,3.471,0.486,4.997,0.486c2.36,0,3.979-0.603,4.858-1.806
	c0.878-1.203,1.318-3.33,1.318-6.385v-48.024h7.218v48.095c0,4.949-0.926,8.559-2.776,10.825c-1.852,2.267-4.951,3.401-9.3,3.401
	c-2.129,0-4.233-0.186-6.315-0.555V349.823z"/>
<path fill="#273945" d="M316.692,326.157h-24.984c0.231,8.189,3.956,12.284,11.173,12.284c4.025,0,7.704-1.319,11.035-3.956
	l2.152,4.997c-1.574,1.388-3.575,2.487-6.003,3.297c-2.429,0.809-4.87,1.214-7.321,1.214c-5.599,0-9.995-1.607-13.187-4.823
	c-3.192-3.215-4.789-7.622-4.789-13.221c0-3.562,0.705-6.732,2.118-9.508c1.41-2.776,3.388-4.927,5.934-6.454
	c2.543-1.526,5.436-2.29,8.675-2.29c4.719,0,8.433,1.527,11.139,4.58c2.707,3.054,4.06,7.287,4.06,12.7V326.157z M295.177,315.261
	c-1.665,1.573-2.73,3.816-3.192,6.732h18.53c-0.277-2.961-1.18-5.216-2.707-6.767c-1.526-1.551-3.585-2.325-6.176-2.325
	C298.995,312.902,296.844,313.689,295.177,315.261"/>
<path fill="#273945" d="M353.481,308.53v34.978h-6.802v-5.83c-1.11,2.037-2.637,3.599-4.58,4.685
	c-1.943,1.088-4.141,1.631-6.594,1.631c-8.42,0-12.63-4.672-12.63-14.019V308.53h6.94v21.376c0,2.868,0.589,4.985,1.77,6.35
	c1.179,1.364,2.972,2.047,5.378,2.047c2.869,0,5.17-0.926,6.905-2.775c1.735-1.851,2.603-4.304,2.603-7.357v-19.64H353.481z"/>
<path fill="#273945" d="M393.212,321.716v21.792h-7.009v-21.375c0-3.055-0.591-5.274-1.77-6.663
	c-1.181-1.388-3.066-2.082-5.656-2.082c-2.962,0-5.334,0.926-7.113,2.776c-1.783,1.851-2.674,4.327-2.674,7.426v19.918h-6.939
	v-25.123c0-3.654-0.186-6.94-0.555-9.854h6.523l0.625,6.037c1.109-2.22,2.718-3.921,4.823-5.101c2.104-1.18,4.499-1.77,7.183-1.77
	C389.024,307.697,393.212,312.371,393.212,321.716"/>
<path fill="#273945" d="M431.479,326.157h-24.983c0.23,8.189,3.954,12.284,11.173,12.284c4.024,0,7.703-1.319,11.035-3.956
	l2.15,4.997c-1.572,1.388-3.574,2.487-6.003,3.297c-2.429,0.809-4.87,1.214-7.321,1.214c-5.599,0-9.994-1.607-13.187-4.823
	c-3.192-3.215-4.789-7.622-4.789-13.221c0-3.562,0.705-6.732,2.117-9.508c1.411-2.776,3.389-4.927,5.934-6.454
	c2.545-1.526,5.437-2.29,8.675-2.29c4.721,0,8.433,1.527,11.14,4.58c2.706,3.054,4.06,7.287,4.06,12.7V326.157z M409.964,315.261
	c-1.665,1.573-2.729,3.816-3.191,6.732h18.529c-0.277-2.961-1.179-5.216-2.707-6.767c-1.526-1.551-3.585-2.325-6.176-2.325
	C413.781,312.902,411.63,313.689,409.964,315.261"/>
<path fill="#273945" d="M435.837,339.552l2.081-5.066c3.655,2.776,7.843,4.165,12.562,4.165c2.405,0,4.234-0.405,5.483-1.216
	c1.249-0.809,1.874-1.954,1.874-3.435c0-1.25-0.43-2.231-1.285-2.95c-0.856-0.717-2.301-1.329-4.337-1.839l-5.83-1.388
	c-3.053-0.647-5.379-1.792-6.975-3.436c-1.596-1.642-2.395-3.689-2.395-6.142c0-3.146,1.26-5.691,3.783-7.634
	c2.521-1.944,5.863-2.915,10.028-2.915c2.498,0,4.868,0.394,7.113,1.18c2.243,0.787,4.152,1.897,5.726,3.331l-2.151,4.928
	c-3.378-2.684-6.939-4.025-10.688-4.025c-2.268,0-4.024,0.429-5.274,1.284c-1.249,0.856-1.873,2.047-1.873,3.574
	c0,1.203,0.392,2.175,1.179,2.914c0.786,0.741,2.035,1.318,3.748,1.735l5.969,1.457c3.33,0.741,5.795,1.909,7.391,3.505
	c1.596,1.597,2.395,3.668,2.395,6.212c0,3.146-1.261,5.633-3.782,7.46c-2.523,1.829-5.958,2.741-10.307,2.741
	C444.164,343.993,439.352,342.512,435.837,339.552"/>
<polygon fill="#4EB1AC" points="110.377,117.954 87.021,104.469 63.663,90.984 63.663,144.925 87.021,131.44 "/>
<polygon fill="#4EB1AC" points="89.713,163.072 113.07,176.557 113.07,176.536 113.07,122.617 66.356,149.587 "/>
<polygon fill="#4EB1AC" points="113.07,113.291 113.07,59.351 66.356,86.322 "/>
<polygon fill="#4EB1AC" points="118.454,59.351 118.454,113.291 165.168,86.322 "/>
<polygon fill="#4EB1AC" points="110.377,181.22 63.664,154.25 63.664,208.19 87.02,194.706 "/>
<polygon fill="#4EB1AC" points="113.07,239.803 113.07,185.884 66.374,212.844 "/>
<polygon fill="#4EB1AC" points="110.377,244.467 63.664,217.496 63.664,271.436 87.02,257.951 "/>
<polygon fill="#4EB1AC" points="167.86,208.17 167.86,208.17 167.86,154.25 121.164,181.211 "/>
<polygon fill="#4EB1AC" points="118.454,185.864 118.454,185.884 118.454,239.803 165.168,212.833 "/>
<polygon fill="#4EB1AC" points="89.713,289.585 113.07,303.07 113.07,249.13 66.356,276.099 "/>
<polygon fill="#4EB1AC" points="110.377,307.732 63.664,280.761 63.664,334.703 87.02,321.217 "/>
<polygon fill="#4EB1AC" points="113.07,366.336 113.07,312.395 66.356,339.365 "/>
<polygon fill="#F9DC30" points="173.244,397.969 219.958,370.999 173.244,344.03 "/>
<polygon fill="#F9DC30" points="167.86,397.948 167.86,344.029 167.86,344.008 121.146,370.978 "/>
<polygon fill="#F9DC30" points="219.957,117.954 173.244,90.984 173.244,144.925 196.6,131.44 "/>
<polygon fill="#F9DC30" points="199.293,163.072 222.65,176.557 222.65,122.617 175.936,149.587 "/>
<polygon fill="#F9DC30" points="219.957,181.22 173.243,154.25 173.243,208.19 196.6,194.706 "/>
<polygon fill="#F9DC30" points="222.65,239.803 222.65,185.884 175.954,212.844 "/>
<polygon fill="#F9DC30" points="219.957,244.467 173.243,217.496 173.243,217.517 173.243,271.436 196.6,257.951 "/>
<polygon fill="#F9DC30" points="199.293,289.585 222.65,303.07 222.65,249.13 175.936,276.099 "/>
<polygon fill="#F9DC30" points="219.957,307.732 173.243,280.761 173.243,334.682 173.243,334.703 196.6,321.217 "/>
<polygon fill="#F9DC30" points="222.65,366.336 222.65,312.395 175.936,339.365 "/>
</svg>
